<?xml version="1.0" encoding="utf-8"?>
<!-- Generator: Adobe Illustrator 25.0.0, SVG Export Plug-In . SVG Version: 6.00 Build 0)  -->
<svg version="1.1" id="Layer_1" xmlns="http://www.w3.org/2000/svg" xmlns:xlink="http://www.w3.org/1999/xlink" x="0px" y="0px"
	 viewBox="0 0 2000 2000" style="enable-background:new 0 0 2000 2000;" xml:space="preserve">
<style type="text/css">
	.st0{fill:#2E4372;}
	.st1{fill:url(#SVGID_1_);}
	.st2{fill:url(#SVGID_2_);}
	.st3{fill:url(#SVGID_3_);}
	.st4{fill:url(#SVGID_4_);}
	.st5{fill:url(#SVGID_5_);}
	.st6{fill:url(#SVGID_6_);}
	.st7{fill:url(#SVGID_7_);}
	.st8{fill:url(#SVGID_8_);}
	.st9{fill:url(#SVGID_9_);}
	.st10{fill:url(#SVGID_10_);}
	.st11{fill:url(#SVGID_11_);}
	.st12{fill:url(#SVGID_12_);}
	.st13{fill:url(#SVGID_13_);}
	.st14{fill:url(#SVGID_14_);}
	.st15{fill:url(#SVGID_15_);}
	.st16{fill:url(#SVGID_16_);}
	.st17{fill:url(#SVGID_17_);}
	.st18{fill:url(#SVGID_18_);}
</style>
<rect class="st0" width="2000" height="2000"/>
<g>
	<g>
		<g>
			<linearGradient id="SVGID_1_" gradientUnits="userSpaceOnUse" x1="875.5999" y1="593.317" x2="875.5999" y2="1287.3248">
				<stop  offset="0" style="stop-color:#EEEBE9"/>
				<stop  offset="0" style="stop-color:#E7E3E0"/>
				<stop  offset="0.0649" style="stop-color:#D8D4D3"/>
				<stop  offset="0.189" style="stop-color:#B2ADB0"/>
				<stop  offset="0.264" style="stop-color:#989398"/>
				<stop  offset="0.5225" style="stop-color:#F8F8F8"/>
				<stop  offset="0.5878" style="stop-color:#EAE9EA"/>
				<stop  offset="0.7133" style="stop-color:#C5C2C4"/>
				<stop  offset="0.8764" style="stop-color:#8C878A"/>
				<stop  offset="1" style="stop-color:#DADADA"/>
				<stop  offset="1" style="stop-color:#B2B2B2"/>
			</linearGradient>
			<path class="st1" d="M980,706.28c-85.54,65.45-147.5,183.23-182.93,265.52H771.2c8.06-34.95,24.96-135.05,36.27-203.68
				c6.98-42.29,43.61-73.21,86.5-72.91C922.85,695.46,954.85,698.04,980,706.28z"/>
			<linearGradient id="SVGID_2_" gradientUnits="userSpaceOnUse" x1="915.212" y1="593.317" x2="915.212" y2="1287.3248">
				<stop  offset="0" style="stop-color:#EEEBE9"/>
				<stop  offset="0" style="stop-color:#E7E3E0"/>
				<stop  offset="0.0649" style="stop-color:#D8D4D3"/>
				<stop  offset="0.189" style="stop-color:#B2ADB0"/>
				<stop  offset="0.264" style="stop-color:#989398"/>
				<stop  offset="0.5225" style="stop-color:#F8F8F8"/>
				<stop  offset="0.5878" style="stop-color:#EAE9EA"/>
				<stop  offset="0.7133" style="stop-color:#C5C2C4"/>
				<stop  offset="0.8764" style="stop-color:#8C878A"/>
				<stop  offset="1" style="stop-color:#DADADA"/>
				<stop  offset="1" style="stop-color:#B2B2B2"/>
			</linearGradient>
			<path class="st2" d="M952.03,1062.94v33.39c0,19.55-13.9,36.33-33.09,40l-40.55,7.82v-33.45c14.2-21.35,36.27-35.79,70.38-46.68
				C949.86,1063.66,950.94,1063.3,952.03,1062.94z"/>
		</g>
		<linearGradient id="SVGID_3_" gradientUnits="userSpaceOnUse" x1="1000" y1="593.317" x2="1000" y2="1287.3248">
			<stop  offset="0" style="stop-color:#EEEBE9"/>
			<stop  offset="0" style="stop-color:#E7E3E0"/>
			<stop  offset="0.0649" style="stop-color:#D8D4D3"/>
			<stop  offset="0.189" style="stop-color:#B2ADB0"/>
			<stop  offset="0.264" style="stop-color:#989398"/>
			<stop  offset="0.5225" style="stop-color:#F8F8F8"/>
			<stop  offset="0.5878" style="stop-color:#EAE9EA"/>
			<stop  offset="0.7133" style="stop-color:#C5C2C4"/>
			<stop  offset="0.8764" style="stop-color:#8C878A"/>
			<stop  offset="1" style="stop-color:#DADADA"/>
			<stop  offset="1" style="stop-color:#B2B2B2"/>
		</linearGradient>
		<path class="st3" d="M1375.46,715.79c-8.72,4.39-17.75,7.52-26.95,8.9c-9.14,1.5-18.23,1.86-27.13,1.32
			c-8.9-0.6-17.69-1.98-26.11-4.39c8.72,0.42,17.38-0.24,25.81-1.62c8.42-1.44,16.54-3.73,24.12-6.86
			c7.64-3.07,14.44-7.52,20.33-12.39c4.03-3.31,7.28-7.22,10.17-11.31c-1.26-1.8-2.65-3.25-4.03-4.21
			c-11.67-8.54-120.97-58.41-305.71-9.56c-184.74,48.79-291.93,390.65-291.93,390.65s-185.22,67.92-151.29,80.13
			c33.99,12.21,114.11,15.4,125.78,53.12c11.73,37.66,19.13,145.94,19.13,145.94s59.43-148.64,90.23-221.85
			c16.54-39.34,48.24-58.65,87.22-71.1c44.52-14.2,77.6-37.42,116.76-63.22c96.01-63.16,194.72-124.28,277.98-204.35
			c30.92-29.72,40.84-54.74,41.57-72.55C1379.49,713.62,1377.5,714.83,1375.46,715.79z M780.77,1270.12
			c21.23-155.68-119.59-133.06-119.59-133.06l113.27-50.95l-14.56,17.44l23.94-16.96l2.05,2.11l-33.45,39.94l42.65-30.2l5.53,5.9
			l-20.33,24.3l25.93-18.35l4.51,4.81l-15.52,18.53l19.79-14.02l4.69,5.05l-24.48,29.3l30.56-21.66L780.77,1270.12z M816.74,1079.73
			c-10.29-4.99-16.3-15.28-16.3-26.05c0-3.85,0.78-7.7,2.35-11.43c36.81-85.66,166.99-356.84,339.81-358.1
			c0,0-21.23,58.05,16.96,79.28C1159.56,763.43,919.84,803.74,816.74,1079.73z M1225.91,721.62c-11.73,0-21.23-9.5-21.23-21.23
			c0-11.67,9.5-21.17,21.23-21.17s21.23,9.5,21.23,21.17C1247.15,712.12,1237.64,721.62,1225.91,721.62z"/>
	</g>
</g>
</svg>
