<svg class="w-5/6 sm:h-64 mx-auto" viewBox="0 0 1176.60617 873.97852" xmlns="http://www.w3.org/2000/svg">
  <title>connected world</title>
  <path transform="translate(-11.697 -13.011)" d="m1095.7 225.46c-133.54-185.83-415.64-261.21-693.08-180.02-146.67 42.921-288.09 128.92-358.18 295.44-125.28 297.67 137.76 392.74 309.77 423.04 83.172 14.651 161.51 39.263 233.09 72.771 128.78 60.284 356.74 113.7 528.63-137.41 124.59-182.01 68.722-350.04-20.23-473.82z" fill="#f2f2f2"/>
  <path transform="translate(-11.697 -13.011)" d="m321.43 262.23a34.385 34.385 0 0 0 -2.2476 -8.6046 3.8949 3.8949 0 0 0 -1.9801 -2.4388 4.0801 4.0801 0 0 0 -1.9647 -0.022l-10.087 1.5435a3.8669 3.8669 0 0 0 -2.3015 0.89427c-1.3138 1.3817-0.0201 3.6066-0.06032 5.5128-0.04523 2.1435-1.9497 3.8834-4.015 4.459a15.177 15.177 0 0 1 -6.3797 -0.0791l-14.105-2.1919a23.256 23.256 0 0 0 10.671 -7.1207c1.8562-2.1989 2.8437-6.3042 0.1611-7.3455a6.5854 6.5854 0 0 0 -2.4499 -0.19671c-6.3906 0.04969-11.419-5.286-17.402-7.5332a19.241 19.241 0 0 0 -21.655 6.4554l7.5139 0.36227a3.3352 3.3352 0 0 1 2.0015 0.53379c1.6467 1.353-0.40057 3.9517-0.16859 6.0702 0.3014 2.7525 3.9561 3.3402 6.711 3.6185s6.2499 2.5167 4.9247 4.9479c-13.847 4.7694-27.937-9.3231-42.479-7.5884-3.6805 0.43906-7.1558 1.8849-10.749 2.7941-21.951 5.5538-44.644-9.2644-67.068-6.1262a85.163 85.163 0 0 0 -14.64 3.8612c-3.0519 1.0021-6.2353 2.085-8.4528 4.409s-3.0615 6.2985-0.96073 8.7285a49.126 49.126 0 0 1 -17.216 -1.6365 9.645 9.645 0 0 1 4.9587 8.5003 102.15 102.15 0 0 0 -26.167 7.9788 44.073 44.073 0 0 0 5.416 7.2148l-11.445 7.353c3.8668 0.97425 5.866 6.2469 3.6173 9.54 4.0094-1.7837 6.4942-6.3979 10.782-7.3334 2.8088-0.61288 5.6669 0.53616 8.3314 1.6156s5.5932 2.1261 8.3517 1.316 4.793-4.3868 3.0402-6.6656a142.72 142.72 0 0 1 36.253 -5.6639 4.5466 4.5466 0 0 1 2.7456 0.52105c1.5982 1.1088 1.1777 3.5038 1.0916 5.4471s1.4285 4.4973 3.1654 3.6214c-2.0434 1.7719-0.29656 5.1076 1.6639 6.9709s4.3233 4.4343 3.1231 6.8581c-0.31325 0.63259-0.84455 1.1387-1.146 1.777-0.88965 1.8842 0.52289 4.0808 2.189 5.332s3.7069 2.1257 4.8643 3.8584 0.63178 4.7655-1.4378 5.0074l-5.8824-7.4687a15.314 15.314 0 0 0 -3.9736 7.5302c6.2378 5.0992 7.176 15.478 1.9538 21.613-2.6687 3.1352-6.4637 5.0403-9.776 7.4858s-6.3772 5.9278-6.3688 10.045c0.01439 7.1131-0.56681 13.721 2.0986 20.316a312.97 312.97 0 0 0 16.99 35.447c1.6808 3.0062 3.8532 6.3011 7.2582 6.8187q-6.455-15.714-11.621-31.917c2.2434 0.00878 4.8359 0.1869 6.151 2.0044 1.089 1.505 0.85507 3.5512 1.1934 5.3778a16.659 16.659 0 0 0 2.1245 4.9943l20.55 36.605c1.7035 3.0345 3.6576 6.2917 6.9133 7.5206 2.0816 0.78568 4.4899 0.63767 6.4058 1.7688 1.5018 0.88663 2.5132 2.4605 4.0442 3.2957 4.3288 2.3615 10.349-2.1675 14.394 0.652 1.1567 0.80618 1.8926 2.0869 2.9584 3.0099 3.7363 3.2356 9.8654 1.0711 14.179 3.4848 2.7798 1.5556 4.2204 4.6667 5.7031 7.486 3.7139 7.0621 9.7233 13.981 17.683 14.543 2.5002 0.17664 5.054-0.2974 7.4979 0.25869s4.8497 2.6889 4.4574 5.1645c-0.67255 4.244 1.4243 8.8911 0.86116 13.151-1.0258 7.7595-12.032 11.169-12.978 18.939-0.207 1.7012 0.117 3.4571-0.28806 5.1223-0.49646 2.0408-2.0292 3.7025-2.5738 5.731-1.0321 3.8442 1.7221 7.67 4.7477 10.256s6.6346 4.8164 8.2888 8.4368c1.7484 3.8266 0.88959 8.2885 1.4582 12.457 1.2413 9.1004 9.1016 15.847 17.191 20.197 2.4646 1.3253 5.1109 2.6084 6.7062 4.9076 2.0821 3.0009 1.8747 6.957 2.5699 10.543 1.7027 8.7816 9.0953 16.017 9.3052 24.96 0.14919 6.3561-3.384 12.122-5.4946 18.12a42.257 42.257 0 0 0 3.4506 35.046c1.5789 2.666 3.4672 5.1796 4.5841 8.0698 1.9931 5.1575 1.3464 11.02 3.1841 16.235 2.4296 6.8946 9.1056 12.589 8.4667 19.872 3.0309 6.2941 9.7237 9.3866 16.454 11.26l12.062 3.3575c2.3095 0.64288 4.7228 1.2909 7.0745 0.82537s4.596-2.4182 4.5353-4.8148c-5.9148-1.3339-12.019-2.7524-16.895-6.3567s-8.2158-10.023-6.3658-15.797c0.85781-2.6775 2.6828-5.7694 0.94774-7.9818-0.99343-1.2667-2.81-1.5977-3.9305-2.7534-1.7478-1.8026-1.1473-4.831 0.10918-7.0048s3.0726-4.1164 3.5794-6.5755a6.8609 6.8609 0 0 0 -3.2158 -7.1379 17.054 17.054 0 0 0 5.97 -3.8306c1.57-1.7929 2.2952-4.557 1.0602-6.5952 3.6675 0.46513 7.9974 0.69293 10.405-2.1126 1.9225-2.2403 1.7905-5.5897 1.0308-8.4424s-2.0436-5.6236-2.0836-8.5754a156.27 156.27 0 0 0 25.353 -0.85968 16.439 16.439 0 0 0 -7.7081 -9.6535c3.8106-0.64475 7.2821-5.2068 8.486-8.8792s0.89686-7.6727 0.15275-11.465a6.1519 6.1519 0 0 1 -0.114 -3.0037c0.42911-1.3675 1.7725-2.202 3.0153-2.9157l18.914-10.863a11.017 11.017 0 0 0 3.0246 -2.2329c1.9817-2.3277 1.6881-5.8415 0.67344-8.7252s-2.64-5.5953-3.0308-8.6272c-1.169-9.0676 8.5376-15.574 11.813-24.109 1.2856-3.3497 1.5476-6.9907 1.7963-10.57 0.2672-3.8443 0.28706-8.3096-2.6647-10.787-2.8295-2.3747-7.2505-1.845-10.211-4.0539-2.7145-2.0252-3.651-5.9583-6.6164-7.5941-2.693-1.4855-6.0696-0.54073-9.0648-1.2394-5.2736-1.2301-8.5924-7.3082-13.978-7.8709-3.0388-0.31753-6.4781 1.1681-8.9687-0.60169-2.1946-1.5594-2.2826-4.6938-2.7003-7.3534a20.536 20.536 0 0 0 -16.575 -16.628c-3.1332-0.50246-6.5436-0.31164-9.2091-2.0335-2.699-1.7435-3.9365-5.0078-6.0566-7.4223-3.4169-3.8914-8.7984-5.274-13.84-6.4591l-20.506-4.8206c-3.6401-0.85575-8.3322-1.3095-10.286 1.8791a14.738 14.738 0 0 0 -1.2167 3.8267 11.85 11.85 0 0 1 -11.144 8.3882 13.179 13.179 0 0 0 -7.7715 -6.0133c-2.0793-0.57947-4.3049-0.64392-6.288-1.4964a8.8327 8.8327 0 0 1 -3.8326 -12.253 10.995 10.995 0 0 0 -1.8788 -13.225c-3.4872-3.1307-8.5315-3.8871-13.207-3.5739-1.2246-2.6721 0.823-5.687 3.0296-7.6289s4.886-3.851 5.3665-6.7508c0.75588-4.5615-5.0643-8.026-9.4834-6.6659s-7.2396 5.6524-9.1041 9.8835c-1.0698 2.4276-1.9792 4.984-3.6666 7.031s-4.4048 3.5127-6.9751 2.8557c-3.6388-0.93-5.0441-5.2531-5.8494-8.9215-1.0805-4.9218-2.1673-9.9118-1.9409-14.946s1.9234-10.203 5.6354-13.61c6.0488-5.5531 15.328-5.0087 23.491-4.1229-1.9286-2.173-1.452-5.8352 0.61156-7.8805a8.9597 8.9597 0 0 1 8.1208 -1.9951 11.191 11.191 0 0 1 6.2912 3.7615c2.3198 2.8283 2.9795 6.647 4.7329 9.8573s5.6962 5.9485 8.9233 4.2262c2.7874-1.4876 3.2298-5.3528 2.5361-8.4352s-2.1671-6.0798-1.9158-9.2293c0.4795-6.0096 6.7091-9.627 12.206-12.102s11.792-5.8036 12.663-11.769a10.73 10.73 0 0 1 0.65234 -3.4203 6.7093 6.7093 0 0 1 2.4614 -2.3147c16.044-10.603 32.355-21.335 50.692-27.129 0.954-0.30143 1.066 0.03357 2.0383-0.20258 1.3607-0.78645 0.45911-2.962-0.84552-3.8385s-3.0484-1.5485-3.3794-3.085c-0.24331-1.1294 0.42213-2.2384 0.595-3.3807 0.42476-2.807-2.9332-5.3987-5.541-4.2764-1.473-1.9508 1.4416-4.2175 3.7984-4.8663a103.15 103.15 0 0 1 21.67 -3.54 3.9033 3.9033 0 0 1 2.4659 0.41943c1.2309 0.85266 1.0737 2.8084 0.20129 4.0254s-2.2294 1.9812-3.3165 3.011a9.0526 9.0526 0 0 0 -2.3481 9.105c3.826 1.9462 7.9855 3.9496 12.223 3.264s7.9986-5.4468 6.0068-9.2492c-1.8548-3.541-7.4263-4.3397-8.3844-8.2205-1.1218-4.5438 5.3104-8.585 3.8615-13.035-0.63466-1.9494-2.5774-3.0966-4.0681-4.504a12.221 12.221 0 0 1 -2.6744 -13.552 15.419 15.419 0 0 1 -13.523 -4.2317c-3.2345-3.2642-5.8149-8.4135-10.408-8.2675-4.2148 0.134-7.8452 5.0513-11.786 3.5511-0.96958-0.36907-1.9919-1.1202-2.9313-0.68012a2.4222 2.4222 0 0 0 -1.0934 1.815c-1.0015 4.7884 0.72138 10.244-1.8884 14.382-2.8399 4.5027-9.4088 5.1269-12.852 9.1872-1.8689 2.2041-2.593 5.174-4.3108 7.4978s-5.3639 3.8011-7.4255 1.7761a10.235 10.235 0 0 0 -2.7804 -12.445 27.309 27.309 0 0 0 -6.1412 -2.9871 36.422 36.422 0 0 1 -6.8608 -3.8237 6.7578 6.7578 0 0 1 -2.5186 -2.6949 6.1414 6.1414 0 0 1 0.17224 -4.2617 17.426 17.426 0 0 1 13.867 -11.494c2.7449-0.37343 5.9396-0.24185 7.7561-2.3333 0.96116-1.1066 1.4655-2.7797 2.8606-3.2291a4.2194 4.2194 0 0 1 2.6411 0.32524l10.245 3.6062a7.1908 7.1908 0 0 0 3.6498 0.60364 2.4745 2.4745 0 0 0 2.1396 -2.6005c-0.32735-1.7014-2.9454-2.5179-2.7071-4.234a2.8267 2.8267 0 0 1 0.85747 -1.4414 36.629 36.629 0 0 1 29.051 -11.472c1.2931 2.1238-0.752 4.6388-2.4537 6.4518s-3.0692 5.0525-1.0112 6.448a5.6425 5.6425 0 0 0 2.7279 0.61435 23.819 23.819 0 0 1 7.2608 2.2023q5.3105 2.3111 10.417 5.0572c-0.30072-2.2447-0.58773-4.6095 0.26309-6.7084s3.2689-3.7452 5.381-2.9278c2.0355 0.78775 3.0794 3.483 5.2481 3.7299 2.8928 0.32939 4.0341-3.9442 2.8257-6.5932s-3.6004-4.8669-3.8001-7.7716c-0.13471-1.9596 0.611-4.3899-0.95429-5.5765a4.2605 4.2605 0 0 0 -1.8468 -0.64758l-39.084-7.1922c-2.3209-0.42709-5.6742-0.09975-5.7771 2.2579-0.05746 1.316 1.1181 2.6179 0.59742 3.8279-0.55569 1.2914-2.3812 1.1733-3.7108 1.6301-2.0631 0.70871-3.0983 3.1584-2.9002 5.3308a14.834 14.834 0 0 0 2.448 6.0075c-2.5422-1.0632-6.3915-1.2586-8.9336-2.3218z" fill="#3f3d56"/>
  <path transform="translate(-11.697 -13.011)" d="m290.24 229.05a12.656 12.656 0 0 0 -13.902 4.1635c-0.64354 0.84733-1.184 2.0154-0.64526 2.9329 0.77242 1.3154 2.7405 0.79583 4.1916 0.3253a10.549 10.549 0 0 1 6.6207 -0.15794c1.3625 0.4678 2.5815 1.2946 3.9499 1.7447a3.9778 3.9778 0 0 0 4.0557 -0.59267c0.93918-0.95786 0.99811-2.447 0.99977-3.7885a3.0468 3.0468 0 0 0 -0.7764 -2.5042 3.9808 3.9808 0 0 0 -1.7955 -0.53108 6.1845 6.1845 0 0 1 -3.6195 -2.1148" fill="#3f3d56"/>
  <path transform="translate(-11.697 -13.011)" d="m304.34 225.13a3.2196 3.2196 0 0 0 -3.1118 4.5344 13.05 13.05 0 0 0 5.203 0.33925 4.4472 4.4472 0 0 0 3.6367 -3.3342 8.3721 8.3721 0 0 1 -5.9279 -1.1321" fill="#3f3d56"/>
  <path transform="translate(-11.697 -13.011)" d="m351.62 218.57a59.853 59.853 0 0 0 -13.342 4.5323 10.024 10.024 0 0 1 6.4025 10.068 5.2431 5.2431 0 0 0 0.06075 2.4894c0.49 1.1879 1.9099 1.6337 3.1582 1.9386a20.823 20.823 0 0 0 6.927 0.88415 7.0564 7.0564 0 0 0 5.7338 -3.5038 24.972 24.972 0 0 1 1.1924 -2.8186c2.9922-4.557 11.881 0.9531 15.094-3.4513 1.1317-1.5515 1.0282-3.887 2.5034-5.1164a5.6241 5.6241 0 0 1 2.5735 -0.98213 180.73 180.73 0 0 1 19.548 -2.7841c3.1092-0.27057 7.1619-1.387 7.1878-4.5078a54.149 54.149 0 0 0 -34.541 4.6467c-3.8504 1.9286-8.943 5.9853-12.652 3.4285-1.3887-0.95731-1.3199-3.5351-3.2313-4.6116-1.9541-1.1006-4.5408-0.65294-6.6151-0.21223z" fill="#3f3d56"/>
  <path transform="translate(-11.697 -13.011)" d="m389.92 225.74l5.4974 1.0563a7.1238 7.1238 0 0 0 -7.4134 7.7201c5.1481 1.7198 10.761 0.04624 16.184 0.27485s11.733 4.1023 10.807 9.4506c-0.27991 1.6171-1.2141 3.2332-0.72831 4.8008 0.34049 1.0988 1.3095 1.8784 1.8564 2.8903 1.1398 2.1087 0.22882 4.7759-1.2103 6.6927s-3.3736 3.4463-4.6368 5.4834c-3.1419 5.0666-1.3568 11.617 0.51479 17.277a15.231 15.231 0 0 0 2.9288 5.8488c2.7728 2.9482 7.2916 3.2046 11.338 3.2637 2.9455 0.043 6.3196-0.10253 8.1823-2.3846 2.4318-2.9794 0.73135-7.6279 2.3324-11.125 1.4541-3.1758 5.1587-4.5382 8.5152-5.5045 6.1491-1.7702 12.416-3.2752 18.229-5.9492 7.2187-3.3203 13.965-8.4947 21.899-8.9221 2.2259-0.1199 4.507 0.1428 6.6511-0.46707s4.1809-2.4636 4.0186-4.6868c-0.1387-1.8996-1.7458-3.2945-3.0016-4.7265s-2.242-3.634-1.0878-5.1491l20.797-3.8844c-1.4742-4.0174-2.6226-9.3085 0.76489-11.924 1.2222-0.94351 2.8586-1.3206 3.8993-2.4613 1.7736-1.9441 0.88175-5.293-1.1656-6.9464s-4.8157-2.0372-7.4382-2.255c-9.1188-0.75732-18.29-0.25689-27.426 0.24392q-26.79 1.4685-53.58 2.9369c-3.5953 0.19707-7.7464-0.104-11.044 1.1226-2.7916 1.0384-4.7764 2.9446-7.9692 3.6143-5.894 1.2364-12.38 0.39973-17.714 3.7088z" fill="#3f3d56"/>
  <path transform="translate(-11.697 -13.011)" d="m488.4 269.19a2.2121 2.2121 0 0 0 -1.6002 0.36291 2.0202 2.0202 0 0 0 -0.5209 1.2339 8.1485 8.1485 0 0 0 1.1836 5.8323 5.7112 5.7112 0 0 0 5.228 2.5065c2.4754-0.31565 4.2996-2.4275 6.5753-3.458 3.5074-1.5868 18.403-4.0605 8.099-9.6273-3.5509-1.9184-5.8454-0.22491-8.6442 1.0385a19.669 19.669 0 0 1 -10.321 2.1111z" fill="#3f3d56"/>
  <path transform="translate(-11.697 -13.011)" d="m578.65 222.59a5.8831 5.8831 0 0 0 -2.8624 2.4916 2.514 2.514 0 0 0 0.94284 3.335 3.7522 3.7522 0 0 0 1.4036 0.22264l4.8922 0.14615c2.0783 0.06209 4.6743 0.50471 5.2328 2.5075 0.41469 1.4871-0.51346 3.3981 0.60642 4.4609a3.1547 3.1547 0 0 0 1.6642 0.64909 11.341 11.341 0 0 0 4.9293 0.15908c3.5595-0.95476 1.6892-3.1273 2.8103-5.0617 1.7153-2.9598 1.4184-1.1681 4.4408-2.8645 2.2321-1.2528 5.1165-3.5253 3.2534-6.7183-3.2398-5.5525-22.533-1.7128-27.313 0.6725z" fill="#3f3d56"/>
  <path transform="translate(-11.697 -13.011)" d="m675.21 219.8l-2.8407 0.37908c-6.4059 0.85484-12.848 1.7176-19.018 3.6412a31.652 31.652 0 0 0 8.3288 2.0437 25.585 25.585 0 0 1 4.6654 0.66319c2.7251 0.81124 5.471 2.9061 8.1038 1.833 1.6324-0.66538 2.1651-2.3651 3.5173-3.2658 0.93372-0.622 4.4752-1.6287 4.8711-2.2565 3.2006-5.0754-5.1676-3.3661-7.6278-3.0378z" fill="#3f3d56"/>
  <path transform="translate(-11.697 -13.011)" d="m687.69 232.71a53.277 53.277 0 0 0 -10.483 7.6772c-1.3347 1.2547-2.698 2.8152-2.5769 4.643 0.16086 2.4294 2.7487 3.8385 4.9907 4.7878l9.0812 3.8448c1.1017-1.5528 0.09336-3.6962-1.0452-5.2221s-2.4916-3.2914-1.9886-5.1276c0.57406-2.0954 3.129-2.8095 5.2715-3.1705 3.4908-0.58817 12.907-0.541 11.776-6.1667-1.3332-6.6288-11.521-3.2246-15.025-1.266z" fill="#3f3d56"/>
  <path transform="translate(-11.697 -13.011)" d="m685.86 607.84c-0.86453 2.5029-0.94655 5.4513 0.54891 7.6365 1.6781 2.4521 5.0364 3.3661 7.9419 2.7443a14.307 14.307 0 0 0 7.3736 -4.7408 25.392 25.392 0 0 0 4.2412 -6.5039 50.767 50.767 0 0 0 3.1436 -11.502l2.8196-14.804c0.63007-3.3086 0.60568-13.452-5.4754-10.147-1.6613 0.90284-5.5076 8.0312-7.2486 10.053-3.1378 3.6432-3.5529 7.1782-5.2048 11.592-2.069 5.5284-6.2273 10.136-8.14 15.673z" fill="#3f3d56"/>
  <path transform="translate(-11.697 -13.011)" d="m1007 683.6a44.332 44.332 0 0 1 -5.7785 -2.7508 48.707 48.707 0 0 0 -2.9293 15.965l13.616-7.7048c2.0483-1.159 4.3698-2.7695 4.3257-5.1225a1.6206 1.6206 0 0 0 -0.75277 -1.4735 1.8356 1.8356 0 0 0 -0.95451 -0.112c-2.019 0.16826-3.8599 1.1617-5.7645 1.8526s-4.1317 1.056-5.8792 0.03077" fill="#3f3d56"/>
  <path transform="translate(-11.697 -13.011)" d="m1078.9 688.17a29.472 29.472 0 0 0 -4.3664 1.567c-3.1246 1.5898-5.2502 4.6095-8.062 6.7034-2.6907 2.0038-5.9298 3.1039-9.1095 4.1736-0.93537 0.82681-0.50556 2.492 0.50978 3.2183a6.3154 6.3154 0 0 0 3.5961 0.80831c3.3034 0.07292 6.7837 0.10473 9.6772-1.4908a30.518 30.518 0 0 0 4.5561 -3.6161c3.3831-2.8227 7.4458-4.6852 11.467-6.485a13.162 13.162 0 0 0 3.9969 -2.3897c2.5271-2.4897 2.7048-6.3307-0.93912-7.1781-2.9443-0.68475-8.523 3.7821-11.326 4.6891z" fill="#3f3d56"/>
  <path transform="translate(-11.697 -13.011)" d="m1110.6 667.44a11.359 11.359 0 0 0 -3.4752 -9.3066c-0.03724 3.4276-0.14133 7.0792-2.0691 9.9136-1.3736 2.0195-3.5272 3.3838-5.0321 5.3074s-2.1729 4.9729-0.40769 6.6609a6.6149 6.6149 0 0 0 3.9202 1.3502c3.5138 0.41362 7.5809 0.64415 10.045-1.8944 1.3451-1.3856 1.9994-3.4377 3.64-4.4564a4.4285 4.4285 0 0 0 1.597 -1.1428c0.6774-1.0768-0.39893-2.496-1.6105-2.884s-2.5467-0.2056-3.7643-0.5741-2.3348-1.7377-1.71-2.8459" fill="#3f3d56"/>
  <path transform="translate(-11.697 -13.011)" d="m1054.2 541.77a15.795 15.795 0 0 1 -5.6359 0.3323c-3.1281-0.5751-5.5628-2.9326-8.0883-4.866a35.677 35.677 0 0 0 -20.846 -7.2833c-6.8625-0.12959-13.789 1.73-20.529 0.43257 0.44035 2.4493 2.5362 4.2863 4.7724 5.3782s4.7042 1.6414 6.9512 2.711a16.597 16.597 0 0 1 8.0392 8.3635c0.72369 1.6892 1.179 3.5275 2.2752 5.0025 2.2406 3.0148 6.4876 3.6768 10.236 3.4303 4.8867-0.32145 9.9906-1.7269 14.537 0.09374 3.4779 1.3928 5.9671 4.4368 8.871 6.8038s6.9941 4.1236 10.329 2.4158a17.075 17.075 0 0 1 -11.814 -16.43c3.2704 0.30074 12.69 0.18435 12.183-5.3726-0.42992-4.7095-8.4715-1.52-11.28-1.0117z" fill="#3f3d56"/>
  <path transform="translate(-11.697 -13.011)" d="m1011.4 580.09c0.58068-3.1849 3.7568-5.9973 2.7674-9.0798-0.6842-2.1317-3.1558-3.1842-5.3941-3.2367s-4.437 0.61415-6.6749 0.67693a32.53 32.53 0 0 0 -4.3708 0.06208c-4.4425 0.73025-7.1807 5.3866-11.367 7.0422-2.5457 1.0067-5.4055 0.81426-8.0531 1.5102-6.0099 1.5798-9.8126 7.2588-14.014 11.838a50.011 50.011 0 0 1 -25.384 14.804c-3.4171 0.79123-7.0904 1.2974-9.8066 3.5167-3.5968 2.9389-4.4822 7.9771-5.2824 12.552a207.33 207.33 0 0 1 -10.093 37.051l14.27 1.822c2.7131 0.34641 5.5245 0.68539 8.1389-0.11824a23.628 23.628 0 0 0 5.3532 -2.8515 53.442 53.442 0 0 1 20.879 -7.5367c3.737-0.51305 7.655-0.60706 11.162 0.782s6.5155 4.5391 6.8094 8.2997a8.7668 8.7668 0 0 1 8.7621 2.131 15.231 15.231 0 0 1 4.1833 8.3511c0.3759 1.9523 0.752 4.2916 2.5636 5.1107 1.478 0.6682 3.1735-0.05148 4.7903-0.18086 5.4865-0.439 10.039 5.9584 15.432 4.8567 5.7835-1.1815 7.2034-9.8431 12.846-11.578 3.2406-0.99649 7.786 0.21524 9.3377-2.7991 1.3677-2.6568-1.3611-5.7228-1.0797-8.6978 0.3465-3.6632 4.6674-5.218 7.9985-6.781 11.484-5.3886 16.934-20.845 11.369-32.245-3.2972-6.7542-9.7847-12.071-10.983-19.491-0.92182-5.7088 1.3286-12.366-2.3112-16.859-1.8516-2.2859-4.9865-3.5476-6.0883-6.2752-0.69353-1.7169-0.41478-3.6649-0.788-5.4786s-1.9555-3.7108-3.7465-3.2407c-5.1989 1.3646-6.8578 17.425-9.6413 21.327-4.2311 5.9316-12.917 2.0244-11.585-5.2836z" fill="#3f3d56"/>
  <path transform="translate(-11.697 -13.011)" d="m915.32 547.84c-1.7766-0.49816-3.7166-0.9889-5.4189-0.277s-2.6964 3.2112-1.3302 4.4514c10.688-0.41637 21.442-0.82984 32.04 0.62169 12.21 1.6724 24.294 5.815 36.558 4.5963a186.05 186.05 0 0 0 -21.326 -4.9487l-12.006-2.2935a92.83 92.83 0 0 0 -9.7492 -1.5064c-6.8493-0.56567-12.033 1.2445-18.768-0.64377z" fill="#3f3d56"/>
  <path transform="translate(-11.697 -13.011)" d="m926.02 510.61c-0.88733-0.07409-1.9863-0.13792-2.4454 0.625-0.43858 0.72893 0.06343 1.692-0.17241 2.5094-0.3222 1.1167-1.7846 1.4019-2.9369 1.2499s-2.3984-0.51613-3.4192 0.03944a2.8981 2.8981 0 0 0 -1.1205 3.2919 8.4746 8.4746 0 0 0 1.9763 3.1504 32.185 32.185 0 0 0 5.1278 5.1433c3.6735 2.7116 8.6504 4.0184 10.964 7.9547a5.278 5.278 0 0 0 1.4643 1.9708c1.1107 0.70357 2.5593 0.16832 3.7552-0.37811l4.192-1.9154a4.7616 4.7616 0 0 0 1.9597 -1.3328c0.95772-1.2995 0.36947-3.1471-0.43438-4.547s-1.8328-2.8487-1.6603-4.4537c0.30757-2.8617 3.987-3.9563 5.5-6.4048 1.525-2.468 0.53222-5.6479 0.708-8.544 0.20569-3.3867 2.3338-7.7921-1.0901-10.323-2.9099-2.1505-5.6912-0.16345-7.7804 2.2108-4.4057 5.0068-6.4889 10.429-14.588 9.7527z" fill="#3f3d56"/>
  <path transform="translate(-11.697 -13.011)" d="m951.47 460.01c1.4312 2.7402 4.4147 4.3755 5.9754 7.0442 1.6916 2.8926 1.4989 6.6299 3.334 9.4336 1.8828 2.8765 5.6718 4.4037 6.7277 7.6754 1.1528 3.5719-1.4628 7.9134 0.62215 11.034a4.6319 4.6319 0 0 0 6.7945 0.62426 4.9839 4.9839 0 0 0 -0.20571 -6.9536c-1.2344-1.1255-3.007-1.6119-4.0377-2.9265a6.141 6.141 0 0 1 -1.0458 -2.5462 16.669 16.669 0 0 1 0.26223 -7.9892 3.5552 3.5552 0 0 0 0.20093 -2.0897c-0.464-1.3487-2.2903-1.4444-3.572-2.0701-2.9112-1.4211-2.8405-5.5295-2.3319-8.7289-0.33863 2.13-7.9259-1.4927-8.7204-2.6993-1.5783-2.3968-0.71931-7.0203-1.0318-9.6689-3.4074 1.6419-4.7215 6.5102-2.9716 9.8606z" fill="#3f3d56"/>
  <path transform="translate(-11.697 -13.011)" d="m875.03 502.17c-1.4004-1.5677-3.5097-3.2077-5.3872-2.2622-1.4324 0.72131-1.8264 2.7032-1.265 4.2054a9.2568 9.2568 0 0 0 3.0549 3.642c3.9126 3.2268 8.1257 6.1391 11.539 9.8901 6.1083 6.7127 9.3442 15.77 15.987 21.954a8.9669 8.9669 0 0 0 5.034 2.7244c1.9354 0.18005 4.1088-1.0588 4.3312-2.9898 0.18325-1.5906-0.92563-3.0144-2.0093-4.1931-2.5805-2.8069-5.4056-5.3906-7.8419-8.3235a6.994 6.994 0 0 1 -2.0045 -4.1863c-0.01236-1.5792 1.4277-3.2321 2.9578-2.841-1.8608-0.47563-3.2409-3.5758-5.972-4.1585-2.2824-0.487-2.8346 0.926-5.5509-0.239-5.1807-2.222-9.2454-9.1613-12.873-13.223z" fill="#3f3d56"/>
  <path transform="translate(-11.697 -13.011)" d="m996.76 349.52a42.899 42.899 0 0 1 -4.3768 -1.5635c-3.8466-1.1546-8.9361 1.6727-8.4234 5.656 0.34067 2.6466 2.8038 4.4309 4.164 6.7266 2.0172 3.4044 1.4795 7.7224 0.41941 11.535a9.0174 9.0174 0 0 1 -1.4554 3.282 11.116 11.116 0 0 1 -3.4469 2.4795 46.103 46.103 0 0 0 -13.49 11.46 3.3029 3.3029 0 0 0 -0.81466 1.5357c-0.18345 1.3449 1.1684 2.3246 1.9327 3.4463 1.6978 2.4917 0.47065 5.8446 0.63849 8.8551a2.5036 2.5036 0 0 0 1.0549 2.1966c1.0233 0.5198 2.2359-0.36314 2.7905-1.368 1.8406-3.3347 0.45407-8.6874 3.907-10.295 0.65316-0.30414 1.445-0.43236 1.8807-1.0061 0.69131-0.91021 0.02434-2.2579 0.37468-3.3459 0.526-1.6335 2.7601-1.7068 4.4747-1.6344a25.398 25.398 0 0 0 8.7242 -1.1615 5.8072 5.8072 0 0 0 2.888 -1.6724c1.0322-1.2882 0.94072-3.1199 0.73447-4.7576a64.492 64.492 0 0 0 -7.6195 -23.25c3.0331 0.38746 6.3331 0.723 8.9504-0.85772 1.4656-0.88515 3.2232-3.5322 2.4962-5.3338-1.1495-2.8491-3.2261-0.45095-5.8039-0.92723z" fill="#3f3d56"/>
  <path transform="translate(-11.697 -13.011)" d="m607.91 394.43c0.363 1.9468 0.71982 3.9967 0.08181 5.8715s-2.645 3.4412-4.5403 2.8668c-1.4708-0.44581-2.3205-1.9247-3.3649-3.0522-5.8081-6.2703-18.912-2.64-22.5-10.397-1.4644-3.166-0.46919-6.959-1.468-10.301a9.1689 9.1689 0 0 0 -9.2853 -6.3078 19.08 19.08 0 0 0 -5.3432 1.595 134.73 134.73 0 0 1 -35.401 8.8543 29.087 29.087 0 0 0 -6.8022 1.2377c-4.9878 1.8083-8.3958 6.4324-10.821 11.151s-4.2158 9.8271-7.4675 14.019c-3.4174 4.4059-8.2061 7.4912-12.673 10.828a12.93 12.93 0 0 0 -4.1807 4.3817c-0.96841 1.9881-0.91378 4.3006-0.83861 6.5108l0.91295 26.844c0.11743 3.4528 0.26488 7.0289 1.8102 10.119 1.9297 3.8584 5.7418 6.3855 8.3864 9.794a19.183 19.183 0 0 1 3.9797 12.251c-0.05629 1.7771-0.23287 3.8789 1.1511 4.995a5.0618 5.0618 0 0 0 2.8304 0.814l36.312 2.9719c6.3875 0.52278 13.466 1.3823 17.637 6.2488 1.9682 2.2967 3.5492 5.5996 6.5639 5.846 1.2931 0.10569 2.5513-0.42512 3.8446-0.52755 3.263-0.25843 6.1296 2.2182 7.9387 4.9461a21.943 21.943 0 0 1 3.5245 14.08c-0.29663 3.1118-1.2614 6.137-1.4694 9.256-0.79146 11.868 9.2692 22.179 9.4642 34.071 0.11471 6.9953-3.2061 13.531-6.4437 19.733 5.2253 7.9159 0.94656 18.457 3.0269 27.711 1.9736 8.7796 9.294 15.653 11.118 24.465 0.83506 4.0341 0.88337 8.9984 4.4406 11.076a10.122 10.122 0 0 0 5.0248 1.0061 66.242 66.242 0 0 0 30.165 -6.8674c4.3986-2.1828 8.9572-5.4413 9.7254-10.291 0.6195-3.9112-1.3639-8.286 0.6546-11.693 2.379-4.0153 8.4735-3.697 11.974-6.7841 5.6786-5.0082 1.2505-14.56 3.5513-21.773 2.0681-6.4841 9.1874-9.9289 12.716-15.748a27.986 27.986 0 0 0 2.955 -8.0088 114.24 114.24 0 0 0 3.0066 -20.426 122.44 122.44 0 0 1 0.92415 -12.511c3.8048-23.638 27.173-39.466 34.76-62.174 0.72457-2.1686 1.0648-5.0572-0.86443-6.2843a5.5252 5.5252 0 0 0 -3.6742 -0.38455l-16.739 2.1103c-2.0791 0.26212-4.2829 0.50711-6.1923-0.35645s-3.2778-3.279-2.265-5.1135c2.843-5.1497-3.0051-11.657-5.6032-16.935a249.89 249.89 0 0 0 -24.885 -40.357 4.1021 4.1021 0 0 1 -1.091 -2.3688l4.7507 0.15818c-1.6036-5.7544-4.2501-12.051-9.8406-14.156-3.1502-1.1862-6.6389-0.776-10-0.59234-9.6272 0.52593-19.948-0.92759-29.477-2.4009z" fill="#3f3d56"/>
  <path transform="translate(-11.697 -13.011)" d="m637.4 264.76c2.5192 2.6753 5.3422 5.5117 8.9872 5.978 6.438 0.82367 11.067-5.8338 14.014-11.617a5.6762 5.6762 0 0 0 5.9231 5.2512 11.693 11.693 0 0 0 4.455 -1.7417 87.765 87.765 0 0 1 41.579 -10.748 4.4903 4.4903 0 0 1 3.429 -4.9364c2.9554-0.58592 5.6176 1.9693 7.0433 4.6235s2.3146 5.7308 4.5797 7.7176 6.6505 1.9002 7.5452-0.97683c0.85894-2.7621-2.0186-5.1176-4.4092-6.746s-4.9104-4.6424-3.3005-7.0456c12.213-2.7035 24.502-5.4173 37-5.9546a15.494 15.494 0 0 0 6.2282 -1.0729c1.9059-0.93527 3.4207-3.0583 2.9082-5.1185a14.104 14.104 0 0 1 -14.718 -5.5516c17.341-1.431 35.785-2.6507 51.153 5.5089 1.8442 3.959-7.555 7.2529-5.0402 10.824 0.80205 1.1389 2.4092 1.2724 3.8019 1.2983 10.679 0.19828 21.421 0.39271 31.98-1.2196 3.8587-0.58921 7.7562-1.421 11.63-0.94319 6.4527 0.79581 11.972 5.1013 18.32 6.505 2.5838 0.57135 5.4809 0.5907 7.659-0.91213s3.1143-4.9248 1.3294-6.8784c5.9771-5.8581 15.897-4.4062 23.783-1.6016s15.355 7.3274 23.701 7.9526c5.9847 0.44829 12.053-1.1615 17.966-0.1383 3.7161 0.643 7.1747 2.2962 10.807 3.3119 6.8693 1.921 14.136 1.5155 21.268 1.6079a149.02 149.02 0 0 1 53.106 10.553 15.789 15.789 0 0 1 5.9037 3.488c1.5733 1.6848 2.3757 4.303 1.3183 6.3514l-17.473-2.553c1.6463 3.2408 5.9053 3.7931 9.364 4.9111s7.0449 4.9376 4.9663 7.9196c-3.7476-1.1932-7.1436 2.5536-9.0367 6.0009s-4.2 7.576-8.1273 7.786c-3.5168 0.18806-7.7701-2.8065-10.062-0.13277a68.629 68.629 0 0 1 8.0855 12.927c2.2647 4.7181 3.8778 10.663 0.81676 14.908a3.864 3.864 0 0 1 -2.0658 1.602c-2.4999 0.63286-4.1242-2.4254-5.917-4.279-2.2591-2.3358-5.6756-2.9974-8.735-4.0929s-6.2821-3.2504-6.5215-6.4912c-0.14893-2.0163 0.91563-3.8906 1.6998-5.7542a22.17 22.17 0 0 0 1.6844 -9.9436c-0.17165-2.7352-0.93862-5.5805-2.903-7.4916s-5.3559-2.5174-7.4647-0.767c-0.984 0.81673-1.7726 2.1232-3.0504 2.172-2.2578 0.08638-3.9914-3.85-5.8079-2.5063a6.1721 6.1721 0 0 1 -0.8387 4.1279c-5.4206 4.7144-13.748 2.7199-20.736 4.3853a38.921 38.921 0 0 0 -9.4606 4.1316 6.0872 6.0872 0 0 0 -2.7042 2.2698c-0.87231 1.6952 0.08944 3.8662 1.627 4.9933a12.917 12.917 0 0 0 5.3646 1.8311c8.5195 1.6135 17.163 4.1113 23.889 9.5834s11.137 14.518 9.0085 22.924l-16.801-16.054q0.95718 10.111 1.0864 20.277a9.1164 9.1164 0 0 1 -0.53256 3.9003c-1.1977 2.6454-4.4439 3.5357-7.2886 4.1197a5.7092 5.7092 0 0 0 -4.3828 7.3148c1.0107 3.2943 3.5307 5.8627 5.8381 8.4219s4.5782 5.4679 4.8802 8.9005-2.2877 7.3017-5.7252 7.063c-2.6059-0.18094-4.5393-2.5138-5.6508-4.8777s-1.7729-4.9973-3.443-7.0059c-5.0549-6.0796-16.409-3.4748-20.937-9.9561a10.241 10.241 0 0 0 -2.1178 9.746c2.1067-1.3188 4.9908-0.09347 6.5736 1.8228s2.3295 4.3731 3.5726 6.5254c1.6773 2.9043 4.3468 5.479 4.5809 8.8247a28.845 28.845 0 0 0 0.06384 3.7953c0.41589 2.0272 2.1293 3.4828 3.3173 5.1772 2.7643 3.9427 2.6277 9.3591 0.846 13.833s-4.9827 8.2115-8.1532 11.836c-5.5377 6.33-11.189 12.623-17.754 17.88-1.8733 1.5-3.8726 2.9749-5.0393 5.072s-1.2266 5.0406 0.56634 6.6359c-1.2829 0.06425-3.5836 0.69522-4.8664 0.75947a113.14 113.14 0 0 1 -0.29339 -15.477c-5.0626-2.4309-10.514 4.0791-9.8603 9.657s4.6877 10.054 7.56 14.88c2.1005 3.529 3.6615 7.6439 2.9603 11.69s-4.3134 7.7794-8.4046 7.4226c-6.5077-0.56766-9.2297-9.9101-15.674-10.979a2.6332 2.6332 0 0 0 -1.696 0.16838c-0.95661 0.525-1.1229 1.805-1.1766 2.8949-0.26365 5.3492-0.49192 10.911 1.5962 15.843 3.0548 7.2149 10.946 13.275 9.291 20.933-8.9178-4.1454-13.554-14.146-15.66-23.752s-2.456-19.691-6.2298-28.772c-2.8655 3.6728-8.8885 0.6366-11.507-3.2164-2.4821-3.6529-4.0104-7.8784-6.4185-11.58s-6.0973-7.017-10.509-7.2206c-4.6255-0.21346-8.637 2.9607-12.165 5.9599-2.9009 2.4662-5.8793 5.0294-7.575 8.4386-2.4676 4.9609-1.8221 10.809-1.941 16.349-0.12858 5.9886-1.3977 12.307-5.4793 16.691s-11.615 5.9112-16.117 1.96c-2.3504-2.0628-3.4884-5.1448-4.502-8.1031a396.68 396.68 0 0 1 -12.188 -43.511c-0.75647 3.3605-3.7073 7.6918-6.5263 5.7123a5.8442 5.8442 0 0 1 -1.5035 -1.9372c-5.2583-8.9122-14.996-14.258-24.835-17.463s-20.191-4.7003-29.92-8.2229a75.787 75.787 0 0 1 -15.521 -7.7314 12.207 12.207 0 0 0 -0.746 12.487c2.1583 3.8216 7.0423 6.0327 11.223 4.6969 2.1604-0.69029 3.9849-2.1901 6.1286-2.9308s5.0209-0.377 5.9583 1.6883c0.89725 1.9768-0.45894 4.3683 0.21381 6.4324 1.0246 3.1437 5.766 3.3859 7.424 6.2466 1.2336 2.1285 0.21858 4.9549-1.5427 6.6724s-4.1113 2.6595-6.2613 3.8551c-6.9762 3.8793-11.937 10.502-18.034 15.654s-14.699 8.9139-21.965 5.609c1.732-8.7702-8.715-15.209-10.637-23.939-0.63259-2.8736-0.30466-5.9261-1.2078-8.7264-1.3076-4.0544-4.9047-6.8421-7.8556-9.9147a38.912 38.912 0 0 1 -10.673 -28.31c0.15946-3.6082 0.82236-7.2752 3.5e-4 -10.792s-3.7338-6.9209-7.342-6.7615c-8.2411 0.364-18.623 0.977-22.947-6.0482-1.5432-2.5073-2.2147-6.1796 0.01642-8.1005 1.5739-1.3551 3.8972-1.2275 5.9641-1.0241l18.568 1.8266c4.3429 0.42722 9.0374 0.77979 12.764-1.4906s5.3415-8.297 1.8907-10.968c-2.5214-1.9517-7.0387-1.8459-7.7716-4.949-0.61041-2.5844 2.2502-5.5167 0.70519-7.6766-1.1078-1.5486-3.5983-1.119-5.1075 0.04194s-2.6042 2.8587-4.2932 3.7377c-2.9629 1.542-6.5032 0.07446-9.6909-0.92292s-7.4612-1.0821-9.0074 1.8786c-1.7292 3.3112 1.5338 7.65-0.18233 10.968-2.2689 4.3868-9.9526 1.8895-13.139 5.6628-3.6564 4.3298 2.4881 10.786 1.255 16.318a10.158 10.158 0 0 1 -10.007 -0.56224 9.7203 9.7203 0 0 1 -4.2006 -9.0505c0.30523-2.4883 1.6025-5.0283 0.73329-7.3798-0.70278-1.9012-2.6116-3.033-4.3857-4.0134l-18.044-9.9711c-1.6753 3.1077 0.44265 6.9605 3.0914 9.2947s5.9665 4.0922 7.7066 7.1642a9.4038 9.4038 0 0 1 -3.5385 12.398 2.1708 2.1708 0 0 1 -1.7886 0.312 2.4953 2.4953 0 0 1 -1.16 -1.5599c-3.1837-8.1474-7.9638-16.18-15.606-20.436s-18.623-3.381-23.634 3.7886c-1.1903 1.7029-1.9892 3.644-3.0261 5.4444-5.509 9.5653-17.319 14.095-28.354 13.799a5.6304 5.6304 0 0 1 -3.0931 -0.72684c-1.7833-1.2316-1.703-3.8452-1.43-5.9952l1.1583-9.1243c0.23259-1.8322 0.56962-3.8574 2.0198-5.0012 2.0442-1.6122 4.993-0.5948 7.5962-0.63229a9.6268 9.6268 0 0 0 8.738 -6.7436 10.849 10.849 0 0 0 -3.0205 -10.789c-1.1932-1.1207-2.7946-2.5284-2.1644-4.0391a3.3391 3.3391 0 0 1 2.3416 -1.5768c4.6761-1.3579 9.617-1.7138 14.215-3.3161s9.0573-4.8804 10.146-9.6263c0.33371-1.4544 0.48564-3.2162 1.792-3.9373a5.3737 5.3737 0 0 1 2.071 -0.42313 10.078 10.078 0 0 0 8.6442 -10.506c2.2036-1.5398 5.291-0.40712 7.4229 1.2306s4.014 3.8015 6.608 4.5075c4.8341 1.3157 9.5058-2.9644 14.516-2.9843 2.1068-0.00834 4.2878 0.73659 6.2699 0.02231 2.0093-0.72411 3.2093-2.7243 4.7514-4.202s4.2481-2.379 5.6721-0.78714l-1.2126-8.982a17.658 17.658 0 0 0 14.371 -2.5981l-15.672-5.2953a3.4074 3.4074 0 0 1 -1.4655 -0.78358c-1.1394-1.2269-0.00768-3.1388 0.91883-4.5335 2.2164-3.3364 2.5885-8.8323-1.0564-10.493-2.4879-1.1338-5.3436 0.22716-7.7315 1.5586l-11.439 6.378c-0.3635 2.1743 2.2954 3.4065 3.943 4.8711a6.6111 6.6111 0 0 1 -4.3112 11.552 8.2377 8.2377 0 0 1 1.4712 6.984l-7.6962 0.55351a3.3343 3.3343 0 0 1 -2.4962 -0.4872c-0.82313-0.73105-0.7115-2.0121-0.90228-3.0964-0.46046-2.6169-3.0229-4.4511-5.6381-4.9214s-5.2905 0.13252-7.8801 0.72774a4.703 4.703 0 0 1 -3.3873 -0.07817 3.3824 3.3824 0 0 1 -1.3401 -1.6914c-1.1353-2.7528-0.07412-5.9884 1.7493-8.3425s4.3195-4.075 6.5613-6.0348a38.243 38.243 0 0 0 11.371 -17.638c4.2368-1.7751 8.623-4.187 12.86-5.9622a39.35 39.35 0 0 1 21.151 -4.0981l14.348 0.27406c4.248 0.08114 8.6109 0.18511 12.539 1.8046s7.3795 5.1222 7.6507 9.3623a2.874 2.874 0 0 1 -0.92 2.6274 3.3895 3.3895 0 0 1 -1.814 0.40888c-3.9618 0.13923-5.6509 1.1264-9.6126 1.2656z" fill="#3f3d56"/>
  <path transform="translate(-11.697 -13.011)" d="m523.04 309.72a4.1985 4.1985 0 0 0 1.1449 -4.2226 7.8535 7.8535 0 0 0 -8.1319 1.5355 13.71 13.71 0 0 0 -2.1786 2.8801c-1.8854 3.076-3.553 6.7502-2.4604 10.189a2.8944 2.8944 0 0 0 1.3246 1.8118 3.4824 3.4824 0 0 0 1.544 0.24185 51.761 51.761 0 0 0 6.2136 -0.38244c1.2661-0.1548 2.7366-0.51234 3.2259-1.6903 0.64319-1.5484-0.91358-3.3007-0.45975-4.9148a5.3694 5.3694 0 0 1 1.3258 -1.8987 2.5101 2.5101 0 0 0 0.7819 -2.1073c-0.18315-0.75735-1.3428-1.187-1.7603-0.529" fill="#3f3d56"/>
  <path transform="translate(-11.697 -13.011)" d="m533.81 295.76a17.385 17.385 0 0 0 -5.6307 -0.35359 2.4555 2.4555 0 0 0 -1.1998 0.27266 2.0018 2.0018 0 0 0 -0.73936 1.0707 5.3193 5.3193 0 0 0 3.0969 6.5186 6.6553 6.6553 0 0 1 1.9204 0.77174c1.5925 1.2356 0.5773 3.7611 0.87877 5.7541 0.33852 2.2379 2.5048 4.1164 2.1076 6.3447-0.31289 1.7555-2.1878 3.1455-1.886 4.903 0.31617 1.8407 2.6519 2.3938 4.5137 2.5412a5.6766 5.6766 0 0 0 3.1979 -0.36651 4.9517 4.9517 0 0 0 2.0176 -2.9219 18.729 18.729 0 0 0 0.94353 -7.052 6.687 6.687 0 0 0 -0.7952 -3.1126 17.378 17.378 0 0 0 -1.8583 -2.1279c-3.567-4.1492 0.18883-10.338-6.5671-12.242z" fill="#3f3d56"/>
  <path transform="translate(-11.697 -13.011)" d="m1002.9 620.79s-273.2-156.82-390.82-127.11c0 0-249.27 26.825-278.15 85.84 0 0-79.237-247.61-108.12-255.87" fill="none" opacity=".8" stroke="#ff6347" stroke-miterlimit="10" stroke-width="2"/>
  <path transform="translate(-11.697 -13.011)" d="m333.9 579.53c45.809-122.16 458.5-257.52 458.5-257.52-58.602 14.857-180.35 171.68-180.35 171.68s-257.52-187.36-386.28-170.03c0 0 567.04 18.571 777.1 297.14" fill="none" opacity=".8" stroke="#ff6347" stroke-miterlimit="10" stroke-width="2"/>
  <circle cx="214.07" cy="310.65" r="11.968" fill="#ff6347"/>
  <circle cx="322.2" cy="566.52" r="11.968" fill="#ff6347"/>
  <circle cx="780.7" cy="309" r="11.968" fill="#ff6347"/>
  <circle cx="991.17" cy="607.78" r="11.968" fill="#ff6347"/>
  <circle cx="600.35" cy="480.68" r="11.968" fill="#ff6347"/>
</svg>